<svg xmlns="http://www.w3.org/2000/svg" width="24" height="24" viewBox="0 0 24 24" fill="none"><rect width="24" height="24" fill="none"/>
<path d="M20.6988 12.5634L19.5242 13.738L18.9 10.3046L19.3771 9.82744L20.6988 11.1491C21.0894 11.5397 21.0894 12.1728 20.6988 12.5634Z" fill="#747474"/>
<path d="M12.8502 3.30071L14.1723 4.62281L13.6953 5.09985L10.2612 4.47548L11.436 3.30071C11.8265 2.91018 12.4597 2.91018 12.8502 3.30071Z" fill="#747474"/>
<path d="M14.3685 7.255L16.4455 5.17796C17.4176 4.20593 18.6432 3.52663 19.9826 3.21754C20.4628 3.10672 20.8931 3.53703 20.7822 4.01717C20.4731 5.35662 19.7939 6.58224 18.8218 7.55427L16.7448 9.63131L18.4373 18.94C18.6488 20.1031 17.5793 20.4508 16.7009 20.7364C16.6351 20.7578 16.5703 20.7789 16.5071 20.7999L12.4674 13.9087L9.85351 16.5226L9.99612 18.6622C10.053 19.5159 9.56496 20.3125 8.77855 20.6496L8.42771 20.7999L6.50061 17.4993L3.19983 15.5721L3.35022 15.2212C3.68723 14.4348 4.48391 13.9467 5.33763 14.0037L7.4772 14.1463L10.0911 11.5324L3.19983 7.49263C3.22087 7.42952 3.24194 7.36472 3.26336 7.29884C3.54894 6.42048 3.89666 5.35099 5.05977 5.56253L14.3685 7.255Z" fill="#747474"/>
</svg>
