<svg xmlns="http://www.w3.org/2000/svg" width="24" height="24" viewBox="0 0 24 24" fill="none"><rect width="24" height="24" fill="none"/>
<path d="M15 14.5C15 15.3284 14.3284 16 13.5 16C12.6716 16 12 15.3284 12 14.5C12 13.6716 12.6716 13 13.5 13C14.3284 13 15 13.6716 15 14.5Z" fill="#E28800"/>
<path fill-rule="evenodd" clip-rule="evenodd" d="M5 2L5 22H20L20 8.5C20 7.67157 19.3284 7 18.5 7L14 7V2L5 2ZM13.5 18C15.433 18 17 16.433 17 14.5C17 12.567 15.433 11 13.5 11C11.567 11 10 12.567 10 14.5C10 16.433 11.567 18 13.5 18Z" fill="#E28800"/>
</svg>
