<svg xmlns="http://www.w3.org/2000/svg" width="24" height="24" viewBox="0 0 24 24" fill="none"><rect width="24" height="24" fill="none"/>
<path d="M1 18.5439L5.00056 7.55247L5.00056 20L1 18.5439Z" fill="#E28800"/>
<path d="M15.5005 16C16.3289 16 17.0005 15.3284 17.0005 14.5C17.0005 13.6716 16.3289 13 15.5005 13C14.6721 13 14.0005 13.6716 14.0005 14.5C14.0005 15.3284 14.6721 16 15.5005 16Z" fill="#E28800"/>
<path fill-rule="evenodd" clip-rule="evenodd" d="M7.00049 22L7.00049 2L16.0005 2V7L20.5005 7C21.3289 7 22.0005 7.67157 22.0005 8.5L22.0005 22L7.00049 22ZM19.0005 14.5C19.0005 16.433 17.4335 18 15.5005 18C13.5675 18 12.0005 16.433 12.0005 14.5C12.0005 12.567 13.5675 11 15.5005 11C17.4335 11 19.0005 12.567 19.0005 14.5Z" fill="#E28800"/>
</svg>
