<svg xmlns="http://www.w3.org/2000/svg" width="24" height="24" viewBox="0 0 24 24" fill="none"><rect width="24" height="24" fill="none"/>
<path d="M4.8744 10.9998C7.15278 10.9998 8.99977 9.15278 8.99977 6.8744C8.99977 4.59602 7.15278 2.74902 4.8744 2.74902C2.59602 2.74902 0.749023 4.59602 0.749023 6.8744C0.749023 9.15278 2.59602 10.9998 4.8744 10.9998Z" fill="#E28800"/>
<path d="M8.64429 20.9998H2.35913L15.3591 3H21.6443L8.64429 20.9998Z" fill="#E28800"/>
<path d="M19.127 21.2545C21.4064 21.2545 23.2542 19.4066 23.2542 17.1272C23.2542 14.8478 21.4064 13 19.127 13C16.8476 13 14.9998 14.8478 14.9998 17.1272C14.9998 19.4066 16.8476 21.2545 19.127 21.2545Z" fill="#E28800"/>
</svg>
