<svg xmlns="http://www.w3.org/2000/svg" width="24" height="24" viewBox="0 0 24 24" fill="none"><rect width="24" height="24" fill="none"/>
<g clip-path="url(#clip0_91610_9441)">
<path d="M21.8061 6.41056C22.6963 5.52041 23.0014 4.57574 23 3.75535C22.9984 2.86319 22.6344 2.118 22.266 1.74972C21.8976 1.38145 21.1443 1.00925 20.2445 0.999934C19.417 0.991369 18.4655 1.28966 17.5755 2.18006L13.7196 6.0629L3.06252 3.00001L0.5 6.51031L8.74063 11.0462L5.14326 14.6436L2.99902 13.4999L-0.000976562 16.4999L6.19702 22.0877L6.38365 21.8887L12.9697 15.2869L17.5 23.4999L21.0215 20.9818L17.9514 10.3071L21.8061 6.41056Z" fill="#E28800"/>
</g>
<defs>
<clipPath id="clip0_91610_9441">
<rect width="24" height="24" fill="white"/>
</clipPath>
</defs>
</svg>
